<?xml version="1.0" encoding="UTF-8"?>
<svg id="Layer_2" data-name="Layer 2" xmlns="http://www.w3.org/2000/svg" viewBox="0 0 428.03 56.37">
  <defs>
    <style>
      .cls-1 {
        fill: #fff;
      }
    </style>
  </defs>
  <g id="Layer_1-2" data-name="Layer 1">
    <g>
      <path class="cls-1" d="m0,55.03L11.13,2.79l18.53,45.79L48.48,2.79l11.21,52.42h-3.55l-8.73-42.05s-17.62,43.2-17.7,43.2L12.01,13.4,3.55,55.03H0Z"/>
      <path class="cls-1" d="m127.63,55.03l11.13-52.23,18.53,45.79L176.1,2.79l11.21,52.42h-3.55l-8.73-42.05s-17.62,43.2-17.7,43.2l-17.7-42.97-8.47,41.63h-3.55Z"/>
      <path class="cls-1" d="m72.02,4.08v51.01h-3.21V4.08h3.21Z"/>
      <path class="cls-1" d="m199.41,4.55v51.01h-3.21V4.55h3.21Z"/>
      <path class="cls-1" d="m113.49,38.28h-21.79l-6.83,16.8h-3.68L102.75,2.38l21.25,52.71h-3.68l-6.83-16.8Zm-1.23-3.07l-9.59-24.24-9.74,24.24h19.33Z"/>
      <path class="cls-1" d="m280.54,7.92h-21.34v15.56h20.65l.04,5.5h-20.65l-.04,20.61h21.34v5.45h-27.36V2.28h27.36v5.64Z"/>
      <path class="cls-1" d="m320.89,40.15l-22.55.11-6.31,14.8h-6.32S309.72,0,309.72,0l24.01,55.06h-6.35l-6.49-14.91Zm-2.11-5.41l-9.1-21.33-9.1,21.33h18.2Z"/>
      <path class="cls-1" d="m379.26,14.09c-1.66-1.64-4.2-3.6-6.9-4.85-2.77-1.25-6.02-2.03-9.12-2.03-12.21,0-21.24,9.7-21.24,21.76,0,14.17,11.65,21.29,21.32,21.29,3.57,0,7.05-1.02,9.83-2.43,3.01-1.49,5.15-3.44,6.1-4.38v7.2c-5.87,4.15-11.97,5.09-15.93,5.09-15.7,0-27.35-11.74-27.35-26.84s11.81-27.16,27.67-27.16c3.17,0,9.27.39,15.62,5.17v7.2Z"/>
      <path class="cls-1" d="m395.31,23.9h26.9V2.59h5.82v52.47h-5.82v-25.64h-26.9v25.64h-5.82V2.59h5.82v21.32Z"/>
      <path class="cls-1" d="m223.42,3.53c2.89,0,8.11.23,11.94,3.28,1.64,1.25,4.68,4.45,4.68,10.77,0,2.57-.55,7.1-5.15,10.22,7.26,1.79,9.91,8.11,9.91,13.11s-2.5,9.05-5.3,11.23c-4.13,3.28-8.89,3.43-12.48,3.43h-12.95V3.53h9.36Zm-3.59,22.86h4.37c3.04,0,10.22-.62,10.22-8.66,0-8.58-8.43-8.74-10.06-8.74h-4.52v17.4Zm0,23.72h6.63c3.36,0,6.63-.23,9.13-2.18,2.03-1.48,3.43-4.06,3.43-7.18,0-4.14-2.42-6.55-4.45-7.65-1.95-1.09-4.68-1.56-8.82-1.56h-5.93v18.57Z"/>
    </g>
  </g>
</svg>